<?xml version="1.0" encoding="utf-8"?>
<!-- Generator: Adobe Illustrator 14.0.0, SVG Export Plug-In . SVG Version: 6.00 Build 43363)  -->
<!DOCTYPE svg PUBLIC "-//W3C//DTD SVG 1.1//EN" "http://www.w3.org/Graphics/SVG/1.1/DTD/svg11.dtd">
<svg version="1.1" id="Layer_1" xmlns="http://www.w3.org/2000/svg" xmlns:xlink="http://www.w3.org/1999/xlink" x="0px" y="0px"
	 width="8640px" height="8640px" viewBox="0 0 8640 8640" enable-background="new 0 0 8640 8640" xml:space="preserve">
<g>
	<path fill="#B32525" d="M4593.854,3717.322h-33.445h-129.715l73.805-25.016v-84.684l-73.805-20.014h-283.208v129.713l-30.02-30.02
		h-69.674l-30.02,30.02h0.001v533.268l30.02,30.02h69.673l30.02-30.02v129.712h283.208v0.002l73.805-20.013v-84.685l-73.805-25.017
		l0,0h129.715h33.445c13.264,0,24.016-10.753,24.016-24.017v-485.234C4617.869,3728.075,4607.117,3717.322,4593.854,3717.322z
		 M4387.721,3997.246c0,54.473-44.158,98.63-98.63,98.63c-54.473,0-98.631-44.158-98.631-98.63v-73.502
		c0-54.473,44.158-98.631,98.631-98.631c54.472,0,98.63,44.158,98.63,98.631V3997.246z M4622.572,3961.045v0.008h-0.008v-0.008
		H4622.572z"/>
	<path fill="none" stroke="#000000" d="M4138.426,3717.322h-11.049 M4118.317,3717.322h-11.049 M4098.208,3717.322h-11.048
		 M4078.1,3717.322h-11.048 M4057.991,3717.322h-11.049 M4037.883,3717.322h-11.049 M4421.207,3717.322h-11.568 M4400.152,3717.322
		h-11.569 M4379.096,3717.322h-11.568 M4358.041,3717.322h-11.569 M4336.985,3717.322h-11.569 M4315.93,3717.322h-11.569
		 M4294.875,3717.322h-11.569 M4273.819,3717.322h-11.569 M4252.763,3717.322h-11.569 M4231.708,3717.322h-11.569
		 M4210.652,3717.322h-11.569 M4189.597,3717.322h-11.569 M4168.542,3717.322h-11.569 M4127.377,4250.59h11.049 M4118.317,4250.59
		h-11.049 M4098.208,4250.59h-11.048 M4078.1,4250.59h-11.048 M4057.991,4250.59h-11.049 M4037.883,4250.59h-11.049
		 M4421.207,4250.59h-11.568 M4400.152,4250.59h-11.569 M4379.096,4250.59h-11.568 M4346.472,4250.59h11.569 M4336.985,4250.59
		h-11.569 M4315.93,4250.59h-11.569 M4283.305,4250.59h11.569 M4273.819,4250.59h-11.569 M4252.763,4250.59h-11.569
		 M4220.139,4250.59h11.569 M4210.652,4250.59h-11.569 M4189.597,4250.59h-11.569 M4156.972,4250.59h11.569 M4560.408,3738.275
		v-11.513 M4560.408,3759.229v-11.513 M4560.408,3780.182v-11.513 M4560.408,3801.135v-11.513 M4560.408,3822.088v-11.513
		 M4560.408,3843.041v-11.513 M4560.408,3863.994v-11.513 M4560.408,3884.947v-11.513 M4560.408,3905.9v-11.513 M4560.408,3926.854
		v-11.513 M4560.408,3947.807v-11.513 M4560.408,3957.247v11.512 M4560.408,3989.712V3978.2 M4560.408,4010.666v-11.513
		 M4560.408,4031.619v-11.513 M4560.408,4052.572v-11.513 M4560.408,4073.525v-11.513 M4560.408,4094.478v-11.513
		 M4560.408,4115.431v-11.513 M4560.408,4136.384v-11.513 M4560.408,4157.337v-11.513 M4560.408,4178.29v-11.513 M4560.408,4199.243
		v-11.513 M4560.408,4220.196v-11.513 M4560.408,4241.149v-11.513 M4430.693,3708.263v-11.049 M4430.693,3688.153v-11.049
		 M4430.693,3668.045v-11.049 M4430.693,3647.936v-11.049 M4430.693,3627.827v-11.049 M4430.693,3607.718v-11.049
		 M4430.693,4229.637v11.513 M4430.693,4208.684v11.513 M4430.693,4187.73v11.513 M4430.693,4166.777v11.513 M4430.693,4145.824
		v11.513 M4430.693,4124.871v11.513 M4430.693,4103.918v11.513 M4430.693,4082.965v11.513 M4430.693,4062.012v11.513
		 M4430.693,4041.059v11.513 M4430.693,4020.106v11.513 M4430.693,3999.153v11.513 M4430.693,3978.2v11.513 M4430.693,3957.247
		v11.512 M4430.693,3936.294v11.513 M4430.693,3915.341v11.513 M4430.693,3894.388v11.513 M4430.693,3873.435v11.513
		 M4430.693,3852.481v11.513 M4430.693,3831.528v11.513 M4430.693,3810.575v11.513 M4430.693,3789.622v11.513 M4430.693,3768.669
		v11.513 M4430.693,3747.716v11.513 M4430.693,3726.763v11.513 M4430.693,4371.242v-11.049 M4430.693,4351.133v-11.049
		 M4430.693,4331.024v-11.049 M4430.693,4310.916v-11.049 M4430.693,4290.807v-11.049 M4430.693,4270.699v-11.049
		 M4147.486,4241.149v-11.513 M4147.486,4220.196v-11.513 M4147.486,4199.243v-11.513 M4147.486,4178.29v-11.513 M4147.486,4157.337
		v-11.513 M4147.486,4136.384v-11.513 M4147.486,4115.431v-11.513 M4147.486,4094.478v-11.513 M4147.486,4073.525v-11.513
		 M4147.486,4052.572v-11.513 M4147.486,4031.619v-11.513 M4147.486,4010.666v-11.513 M4147.486,3989.712V3978.2 M4147.486,3968.759
		v-11.512 M4147.486,3947.807v-11.513 M4147.486,3926.854v-11.513 M4147.486,3905.9v-11.513 M4147.486,3884.947v-11.513
		 M4147.486,3863.994v-11.513 M4147.486,3843.041v-11.513 M4147.486,3822.088v-11.513 M4147.486,3801.135v-11.513
		 M4147.486,3780.182v-11.513 M4147.486,3759.229v-11.513 M4147.486,3738.275v-11.513"/>
</g>
</svg>
