<?xml version="1.0" encoding="utf-8"?>
<!-- Generator: Adobe Illustrator 14.0.0, SVG Export Plug-In . SVG Version: 6.00 Build 43363)  -->
<!DOCTYPE svg PUBLIC "-//W3C//DTD SVG 1.1//EN" "http://www.w3.org/Graphics/SVG/1.1/DTD/svg11.dtd">
<svg version="1.1" id="Layer_1" xmlns="http://www.w3.org/2000/svg" xmlns:xlink="http://www.w3.org/1999/xlink" x="0px" y="0px"
	 width="8640px" height="8640px" viewBox="0 0 8640 8640" enable-background="new 0 0 8640 8640" xml:space="preserve">
<g>
	<path fill="#B32525" d="M4300.981,4489.834l32.419,4.003v525.261l-32.419,4.003h-0.001l-30.02,30.021h-223.168l-30.02-30.021
		v-222.534c24.355,0,44.098-19.743,44.098-44.098c0-24.355-19.742-44.1-44.098-44.1v-222.535l30.02-30.02h223.168L4300.981,4489.834
		L4300.981,4489.834z M4334.564,4756.463v0.008h0.008v-0.008H4334.564z"/>
	<path fill="none" stroke="#000000" d="M4279.925,5023.101h11.569 M4270.439,5023.101h-11.569 M4249.383,5023.101h-11.569
		 M4228.328,5023.101h-11.569 M4207.272,5023.101h-11.569 M4186.217,5023.101h-11.569 M4165.162,5023.101h-11.569
		 M4144.106,5023.101h-11.569 M4123.051,5023.101h-11.569 M4101.995,5023.101h-11.569 M4080.939,5023.101h-11.569
		 M4059.884,5023.101h-11.569 M4038.828,5023.101h-11.568 M4300.981,4499.273v11.514 M4300.981,4520.227v11.514 M4300.981,4541.18
		v11.514 M4300.981,4562.133v11.514 M4300.981,4583.086v11.513 M4300.981,4604.039v11.513 M4300.981,4624.992v11.513
		 M4300.981,4645.945v11.513 M4300.981,4666.898v11.513 M4300.981,4687.852v11.513 M4300.981,4708.805v11.513 M4300.981,4729.758
		v11.513 M4300.981,4750.711v11.512 M4300.981,4771.664v11.512 M4300.981,4792.617v11.512 M4300.981,4813.57v11.512
		 M4300.981,4834.523v11.512 M4300.981,4855.477v11.512 M4300.981,4876.43v11.512 M4300.981,4897.383v11.512 M4300.981,4918.336
		v11.512 M4300.981,4939.288v11.513 M4300.981,4960.241v11.513 M4300.981,4981.194v11.513 M4300.981,5002.147v11.513
		 M4038.828,4489.834h-11.568 M4048.315,4489.834h11.569 M4080.939,4489.834h-11.569 M4101.995,4489.834h-11.569 M4111.481,4489.834
		h11.569 M4144.106,4489.834h-11.569 M4153.592,4489.834h11.569 M4186.217,4489.834h-11.569 M4207.272,4489.834h-11.569
		 M4216.759,4489.834h11.569 M4249.383,4489.834h-11.569 M4270.439,4489.834h-11.569 M4279.925,4489.834h11.569"/>
</g>
</svg>
