<?xml version="1.0" encoding="UTF-8"?><!DOCTYPE svg PUBLIC "-//W3C//DTD SVG 1.1//EN" "http://www.w3.org/Graphics/SVG/1.1/DTD/svg11.dtd"><svg xmlns="http://www.w3.org/2000/svg"><symbol id="box1" viewBox="0 0 8640 8640"><path fill="#B32525" d="M4593.854 3717.322h-163.16l73.805-25.016v-84.684l-73.805-20.014h-283.208v129.713l-30.02-30.02h-69.674l-30.02 30.02h.001v533.268l30.02 30.02h69.673l30.02-30.02v129.712h283.208v.002l73.805-20.013v-84.685l-73.805-25.017h163.16c13.264 0 24.016-10.753 24.016-24.017v-485.234c-.001-13.262-10.753-24.015-24.016-24.015zm-206.133 279.924c0 54.473-44.158 98.63-98.63 98.63-54.473 0-98.631-44.158-98.631-98.63v-73.502c0-54.473 44.158-98.631 98.631-98.631 54.472 0 98.63 44.158 98.63 98.631v73.502zm234.851-36.201v.008h-.008v-.008h.008z"/><path fill="none" stroke="#000" d="M4138.426 3717.322h-11.049m-9.06 0h-11.049m-9.06 0h-11.048m-9.06 0h-11.048m-9.061 0h-11.049m-9.059 0h-11.049m394.373 0h-11.568m-9.487 0h-11.569m-9.487 0h-11.568m-9.487 0h-11.569m-9.487 0h-11.569m-9.486 0h-11.569m-9.486 0h-11.569m-9.487 0h-11.569m-9.487 0h-11.569m-9.486 0h-11.569m-9.487 0h-11.569m-9.486 0h-11.569m-9.486 0h-11.569m-29.596 533.268h11.049m-20.109 0h-11.049m-9.06 0h-11.048m-9.06 0h-11.048m-9.061 0h-11.049m-9.059 0h-11.049m394.373 0h-11.568m-9.487 0h-11.569m-9.487 0h-11.568m-21.056 0h11.569m-21.056 0h-11.569m-9.486 0h-11.569m-21.056 0h11.569m-21.055 0h-11.569m-9.487 0h-11.569m-21.055 0h11.569m-21.056 0h-11.569m-9.486 0h-11.569m-21.056 0h11.569m391.867-512.315v-11.513m0 32.467v-11.513m0 32.466v-11.513m0 32.466v-11.513m0 32.466v-11.513m0 32.466v-11.513m0 32.466v-11.513m0 32.466v-11.513m0 32.466v-11.513m0 32.467v-11.513m0 32.466v-11.513m0 20.953v11.512m0 20.953V3978.2m0 32.466v-11.513m0 32.466v-11.513m0 32.466v-11.513m0 32.466v-11.513m0 32.466v-11.513m0 32.466v-11.513m0 32.466v-11.513m0 32.466v-11.513m0 32.466v-11.513m0 32.466v-11.513m0 32.466v-11.513m0 32.466v-11.513m-129.715-521.373v-11.049m0-9.061v-11.049m0-9.059v-11.049m0-9.06v-11.049m0-9.06v-11.049m0-9.06v-11.049m0 632.968v11.513m0-32.466v11.513m0-32.467v11.513m0-32.466v11.513m0-32.466v11.513m0-32.466v11.513m0-32.466v11.513m0-32.466v11.513m0-32.466v11.513m0-32.466v11.513m0-32.466v11.513m0-32.466v11.513m0-32.466v11.513m0-32.466v11.512m0-32.465v11.513m0-32.466v11.513m0-32.466v11.513m0-32.466v11.513m0-32.467v11.513m0-32.466v11.513m0-32.466v11.513m0-32.466v11.513m0-32.466v11.513m0-32.466v11.513m0-32.466v11.513m0 632.966v-11.049m0-9.06v-11.049m0-9.06v-11.049m0-9.059v-11.049m0-9.06v-11.049m0-9.059v-11.049m-283.207-18.501v-11.513m0-9.44v-11.513m0-9.44v-11.513m0-9.44v-11.513m0-9.44v-11.513m0-9.44v-11.513m0-9.44v-11.513m0-9.44v-11.513m0-9.44v-11.513m0-9.44v-11.513m0-9.44v-11.513m0-9.44v-11.513m0-9.441V3978.2m0-9.441v-11.512m0-9.44v-11.513m0-9.44v-11.513m0-9.441v-11.513m0-9.44v-11.513m0-9.44v-11.513m0-9.44v-11.513m0-9.44v-11.513m0-9.44v-11.513m0-9.44v-11.513m0-9.44v-11.513m0-9.441v-11.513"/></symbol><symbol id="box2" viewBox="0 0 8640 8640"><path fill="#B32525" d="M4300.981 4489.834l32.419 4.003v525.261l-32.419 4.003h-.001l-30.02 30.021h-223.168l-30.02-30.021v-222.534c24.355 0 44.098-19.743 44.098-44.098s-19.742-44.1-44.098-44.1v-222.535l30.02-30.02h223.168l30.021 30.02zm33.583 266.629v.008h.008v-.008h-.008z"/><path fill="none" stroke="#000" d="M4279.925 5023.101h11.569m-21.055 0h-11.569m-9.487 0h-11.569m-9.486 0h-11.569m-9.487 0h-11.569m-9.486 0h-11.569m-9.486 0h-11.569m-9.487 0h-11.569m-9.486 0h-11.569m-9.487 0h-11.569m-9.487 0h-11.569m-9.486 0h-11.569m-9.487 0h-11.568m273.721-523.828v11.514m0 9.44v11.514m0 9.439v11.514m0 9.439v11.514m0 9.439v11.513m0 9.44v11.513m0 9.44v11.513m0 9.44v11.513m0 9.44v11.513m0 9.441v11.513m0 9.44v11.513m0 9.44v11.513m0 9.44v11.512m0 9.441v11.512m0 9.441v11.512m0 9.441v11.512m0 9.441v11.512m0 9.442v11.512m0 9.441v11.512m0 9.441v11.512m0 9.441v11.512m0 9.44v11.513m0 9.44v11.513m0 9.44v11.513m0 9.44v11.513m-262.153-523.826h-11.568m21.055 0h11.569m21.055 0h-11.569m32.625 0h-11.569m21.055 0h11.569m21.056 0h-11.569m21.055 0h11.569m21.056 0h-11.569m32.624 0h-11.569m21.056 0h11.569m21.055 0h-11.569m32.625 0h-11.569m21.055 0h11.569"/></symbol><symbol id="facebook" viewBox="0 0 408.788 408.788"><path d="M353.701 0H55.087C24.665 0 .002 24.662.002 55.085v298.616c0 30.423 24.662 55.085 55.085 55.085h147.275l.251-146.078h-37.951a8.954 8.954 0 0 1-8.954-8.92l-.182-47.087a8.955 8.955 0 0 1 8.955-8.989h37.882v-45.498c0-52.8 32.247-81.55 79.348-81.55h38.65a8.955 8.955 0 0 1 8.955 8.955v39.704a8.955 8.955 0 0 1-8.95 8.955l-23.719.011c-25.615 0-30.575 12.172-30.575 30.035v39.389h56.285c5.363 0 9.524 4.683 8.892 10.009l-5.581 47.087a8.955 8.955 0 0 1-8.892 7.901h-50.453l-.251 146.078h87.631c30.422 0 55.084-24.662 55.084-55.084V55.085C408.786 24.662 384.124 0 353.701 0z" fill="#475993"/></symbol><symbol id="iconalt" preserveAspectRatio="none"><title>Layer 1</title><path fill="transparent" d="M0 0h4v4H0z"/><path opacity=".1" fill="#FFF" d="M0 0h4L0 4z"/></symbol></svg>